<svg xmlns="http://www.w3.org/2000/svg" viewBox="0 0 100 100">
  <defs>
    <linearGradient id="grad1" x1="0%" y1="0%" x2="100%" y2="100%">
      <stop offset="0%" style="stop-color:#00F0FF;stop-opacity:1" />
      <stop offset="100%" style="stop-color:#7B2CFF;stop-opacity:1" />
    </linearGradient>
    <linearGradient id="grad2" x1="0%" y1="100%" x2="100%" y2="0%">
      <stop offset="0%" style="stop-color:#FF6B6B;stop-opacity:1" />
      <stop offset="100%" style="stop-color:#FFD93D;stop-opacity:1" />
    </linearGradient>
  </defs>
  
  <circle cx="50" cy="50" r="45" fill="url(#grad1)" />
  
  <path d="M30 30 L30 70 L55 55 Z" fill="white" opacity="0.1" />
  <path d="M55 55 L70 30 L70 70 Z" fill="white" opacity="0.1" />
  
  <path d="M25 50 L45 50 L45 40 L60 60 L45 80 L45 70 L25 70 Z" fill="white" />
  
  <path d="M65 35 Q70 30, 75 35 Q70 40, 65 35" fill="#FFD93D" />
  <path d="M65 50 Q70 45, 75 50 Q70 55, 65 50" fill="#FF6B6B" />
  <path d="M65 65 Q70 60, 75 65 Q70 70, 65 65" fill="#00F0FF" />
  
  <circle cx="50" cy="50" r="3" fill="black" opacity="0.3" />
</svg>
